<svg width="23px" height="23px" viewBox="0 0 23 23" version="1.1" xmlns="http://www.w3.org/2000/svg" xmlns:xlink="http://www.w3.org/1999/xlink">
    <g id="Page-1" stroke="none" stroke-width="1" fill="none" fill-rule="evenodd">
        <g id="HOME-PAGE-Desktop--MULI" transform="translate(-1029.000000, -914.000000)">
            <g id="Group-5" transform="translate(616.000000, 716.000000)">
                <g id="Group-4-Copy-3" transform="translate(414.000000, 199.000000)">
                    <g id="Group-7" stroke-width="2" stroke="#E9775C">
                        <circle id="Oval-2" cx="10.5" cy="10.5" r="10.5"></circle>
                    </g>
                    <g id="Page-1" transform="translate(7.000000, 5.000000)" fill="#E9775C">
                        <path d="M1.13961628,10.9884577 C0.84805814,10.9884577 0.556337209,10.8824859 0.333802326,10.6706972 C-0.111267442,10.2472746 -0.111267442,9.56047183 0.333802326,9.1370493 L4.1825,5.47420423 L0.375965116,1.85133099 C-0.0692674419,1.42790845 -0.0692674419,0.741105634 0.375802326,0.317683099 C0.820872093,-0.105894366 1.54252326,-0.105894366 1.98726744,0.317683099 L6.59977907,4.70730282 C6.81352326,4.91072535 6.93366279,5.1865 6.93366279,5.47420423 C6.93366279,5.76190845 6.81352326,6.0376831 6.59994186,6.2409507 L1.94543023,10.6706972 C1.72289535,10.8824859 1.43117442,10.9884577 1.13961628,10.9884577" id="Fill-1"></path>
                    </g>
                </g>
            </g>
        </g>
    </g>
</svg>